<svg width="17" height="16" viewBox="0 0 17 16" fill="none" xmlns="http://www.w3.org/2000/svg">
<path d="M0.308628 15.4667H1.97461V6.66667C1.97461 6.5194 2.09893 6.4 2.25227 6.4H6.13956V0.266667C6.13956 0.1194 6.26388 0 6.41722 0H13.6365C13.7898 0 13.9141 0.1194 13.9141 0.266667V15.4667H16.4131C16.5664 15.4667 16.6908 15.5861 16.6908 15.7333C16.6908 15.8806 16.5664 16 16.4131 16H0.308628C0.155289 16 0.0309658 15.8806 0.0309658 15.7333C0.0309658 15.5861 0.155289 15.4667 0.308628 15.4667ZM10.8598 15.4667H11.9705V13.0667C11.9705 12.9194 11.8462 12.8 11.6928 12.8H11.1375C10.9842 12.8 10.8598 12.9194 10.8598 13.0667V15.4667ZM9.74918 6.66667V15.4667H10.3045V13.0667C10.3045 12.6248 10.6774 12.2667 11.1375 12.2667H11.6928C12.1529 12.2667 12.5258 12.6248 12.5258 13.0667V15.4667H13.3588V0.533333H6.69488V6.4H9.47151C9.62485 6.4 9.74918 6.5194 9.74918 6.66667ZM2.52993 15.4667H9.19385V6.93333H2.52993V15.4667Z" fill="#84829A"/>
<path d="M7.8055 3.7334H9.47148C9.62482 3.7334 9.74915 3.8528 9.74915 4.00007V5.60007C9.74915 5.74733 9.62482 5.86673 9.47148 5.86673H7.8055C7.65216 5.86673 7.52784 5.74733 7.52784 5.60007V4.00007C7.52784 3.8528 7.65216 3.7334 7.8055 3.7334ZM8.08317 5.3334H9.19382V4.26673H8.08317V5.3334Z" fill="#84829A"/>
<path d="M7.8055 1.06665H9.47148C9.62482 1.06665 9.74915 1.18605 9.74915 1.33332V2.93332C9.74915 3.08058 9.62482 3.19998 9.47148 3.19998H7.8055C7.65216 3.19998 7.52784 3.08058 7.52784 2.93332V1.33332C7.52784 1.18605 7.65216 1.06665 7.8055 1.06665ZM8.08317 2.66665H9.19382V1.59998H8.08317V2.66665Z" fill="#84829A"/>
<path d="M10.5822 3.7334H12.2481C12.4015 3.7334 12.5258 3.8528 12.5258 4.00007V5.60007C12.5258 5.74733 12.4015 5.86673 12.2481 5.86673H10.5822C10.4288 5.86673 10.3045 5.74733 10.3045 5.60007V4.00007C10.3045 3.8528 10.4288 3.7334 10.5822 3.7334ZM10.8598 5.3334H11.9705V4.26673H10.8598V5.3334Z" fill="#84829A"/>
<path d="M10.5822 1.06665H12.2481C12.4015 1.06665 12.5258 1.18605 12.5258 1.33332V2.93332C12.5258 3.08058 12.4015 3.19998 12.2481 3.19998H10.5822C10.4288 3.19998 10.3045 3.08058 10.3045 2.93332V1.33332C10.3045 1.18605 10.4288 1.06665 10.5822 1.06665ZM10.8598 2.66665H11.9705V1.59998H10.8598V2.66665Z" fill="#84829A"/>
<path d="M10.5822 6.3999H12.2481C12.4015 6.3999 12.5258 6.5193 12.5258 6.66657V8.26657C12.5258 8.41384 12.4015 8.53324 12.2481 8.53324H10.5822C10.4288 8.53324 10.3045 8.41384 10.3045 8.26657V6.66657C10.3045 6.5193 10.4288 6.3999 10.5822 6.3999ZM10.8598 7.9999H11.9705V6.93324H10.8598V7.9999Z" fill="#84829A"/>
<path d="M10.5822 9.06665H12.2481C12.4015 9.06665 12.5258 9.18605 12.5258 9.33332V10.9333C12.5258 11.0806 12.4015 11.2 12.2481 11.2H10.5822C10.4288 11.2 10.3045 11.0806 10.3045 10.9333V9.33332C10.3045 9.18605 10.4288 9.06665 10.5822 9.06665ZM10.8598 10.6667H11.9705V9.59998H10.8598V10.6667Z" fill="#84829A"/>
<path d="M5.30653 12.2666H3.64056C3.48722 12.2666 3.36289 12.1472 3.36289 12V10.4C3.36289 10.2527 3.48722 10.1333 3.64056 10.1333H5.30653C5.45987 10.1333 5.5842 10.2527 5.5842 10.4V12C5.5842 12.1472 5.45987 12.2666 5.30653 12.2666ZM5.02887 10.6666H3.91822V11.7333H5.02887V10.6666Z" fill="#84829A"/>
<path d="M5.30653 9.59989H3.64056C3.48722 9.59989 3.36289 9.48049 3.36289 9.33322V7.73322C3.36289 7.58595 3.48722 7.46655 3.64056 7.46655H5.30653C5.45987 7.46655 5.5842 7.58595 5.5842 7.73322V9.33322C5.5842 9.48049 5.45987 9.59989 5.30653 9.59989ZM5.02887 7.99989H3.91822V9.06655H5.02887V7.99989Z" fill="#84829A"/>
<path d="M5.30653 14.9334H3.64056C3.48722 14.9334 3.36289 14.814 3.36289 14.6667V13.0667C3.36289 12.9194 3.48722 12.8 3.64056 12.8H5.30653C5.45987 12.8 5.5842 12.9194 5.5842 13.0667V14.6667C5.5842 14.814 5.45987 14.9334 5.30653 14.9334ZM5.02887 13.3334H3.91822V14.4H5.02887V13.3334Z" fill="#84829A"/>
<path d="M8.0832 12.2666H6.41722C6.26388 12.2666 6.13956 12.1472 6.13956 12V10.4C6.13956 10.2527 6.26388 10.1333 6.41722 10.1333H8.0832C8.23654 10.1333 8.36086 10.2527 8.36086 10.4V12C8.36086 12.1472 8.23654 12.2666 8.0832 12.2666ZM7.80554 10.6666H6.69488V11.7333H7.80554V10.6666Z" fill="#84829A"/>
<path d="M8.0832 9.59989H6.41722C6.26388 9.59989 6.13956 9.48049 6.13956 9.33322V7.73322C6.13956 7.58595 6.26388 7.46655 6.41722 7.46655H8.0832C8.23654 7.46655 8.36086 7.58595 8.36086 7.73322V9.33322C8.36086 9.48049 8.23654 9.59989 8.0832 9.59989ZM7.80554 7.99989H6.69488V9.06655H7.80554V7.99989Z" fill="#84829A"/>
<path d="M8.0832 14.9334H6.41722C6.26388 14.9334 6.13956 14.814 6.13956 14.6667V13.0667C6.13956 12.9194 6.26388 12.8 6.41722 12.8H8.0832C8.23654 12.8 8.36086 12.9194 8.36086 13.0667V14.6667C8.36086 14.814 8.23654 14.9334 8.0832 14.9334ZM7.80554 13.3334H6.69488V14.4H7.80554V13.3334Z" fill="#84829A"/>
</svg>
