<svg width="38" height="36" viewBox="0 0 38 36" fill="none" xmlns="http://www.w3.org/2000/svg">
<ellipse cx="18.8969" cy="18" rx="18.7423" ry="18" fill="#F5F5F5"/>
<g clip-path="url(#clip0_206_1576)">
<path d="M25.8254 12.1508C25.4413 12.0429 16.0461 11.1445 12.7466 15.4257C11.2853 17.3222 11.2634 19.9221 12.6734 23.1525C12.3157 23.8655 12.0026 24.6166 11.7474 25.4091C11.6698 25.6499 11.8101 25.9052 12.0606 25.9795C12.1073 25.9934 12.1546 26 12.2013 26C12.4038 26 12.5918 25.8744 12.6545 25.6787C15.1693 17.8703 23.3419 14.0927 25.8481 13.1383C26.092 13.0454 26.418 12.3174 25.8254 12.1508Z" fill="#84829A"/>
<path d="M14.1821 24.1296C15.5424 24.6777 16.9024 24.9586 18.1672 24.9586C19.304 24.9586 20.3642 24.7341 21.2778 24.2789C23.1165 23.3629 24.24 21.6107 24.5269 19.2112C24.8192 16.7658 25.1832 15.234 25.4867 14.297C22.7844 15.4942 16.9901 18.5973 14.1821 24.1296Z" fill="#84829A"/>
</g>
<defs>
<clipPath id="clip0_206_1576">
<rect width="14.5773" height="14" fill="white" transform="translate(11.6083 12)"/>
</clipPath>
</defs>
</svg>
