<svg width="38" height="36" viewBox="0 0 38 36" fill="none" xmlns="http://www.w3.org/2000/svg">
<ellipse cx="19.1237" cy="18" rx="18.7423" ry="18" fill="#F5F5F5"/>
<g clip-path="url(#clip0_206_1590)">
<path d="M24.8514 11C24.7706 11 24.6908 11.018 24.6185 11.0527L20.6733 12.9477L16.2122 11.0432C16.2049 11.0403 16.1966 11.0397 16.1887 11.0367C16.1687 11.0295 16.1481 11.0235 16.1273 11.0187C16.1066 11.0134 16.0855 11.0092 16.0643 11.0062C16.022 11.0029 15.9795 11.0029 15.9373 11.0062C15.9161 11.0092 15.895 11.0134 15.8743 11.0187C15.8535 11.0235 15.8329 11.0295 15.8129 11.0367C15.8051 11.0397 15.7967 11.0402 15.7894 11.0432L11.1039 13.0432C10.9159 13.1234 10.7947 13.3026 10.7947 13.5002V24.5C10.7948 24.6692 10.8839 24.8268 11.0316 24.919C11.1793 25.0114 11.3656 25.0257 11.5266 24.957L16.0008 23.047L20.4749 24.957C20.4827 24.96 20.491 24.957 20.4988 24.9615C20.6249 25.0157 20.7696 25.0126 20.8929 24.953C20.9013 24.9496 20.9106 24.953 20.919 24.9475L25.0838 22.9476C25.2603 22.8629 25.3718 22.6896 25.3717 22.5V11.5002C25.3719 11.2241 25.1389 11.0001 24.8514 11ZM15.4802 22.1751L11.8359 23.7305V13.8252L15.4802 12.2697V22.1751ZM20.1657 23.7305L16.5214 22.1751V12.2697L20.1657 13.8252V23.7305ZM24.3306 22.1911L21.2069 23.691V13.8092L24.3306 12.3092V22.1911Z" fill="#84829A"/>
</g>
<defs>
<clipPath id="clip0_206_1590">
<rect width="14.5773" height="14" fill="white" transform="translate(10.7938 11)"/>
</clipPath>
</defs>
</svg>
