<svg width="24" height="24" viewBox="0 0 24 24" fill="none" xmlns="http://www.w3.org/2000/svg">
<path d="M21.0662 3.98265L13.2886 20.952C13.2235 21.0942 13.1132 21.2107 12.9748 21.2835C12.8364 21.3562 12.6778 21.3811 12.5238 21.3541C12.3698 21.3272 12.2291 21.25 12.1237 21.1346C12.0182 21.0191 11.954 20.872 11.9411 20.7162L11.2835 12.8278L3.3951 12.1702C3.23931 12.1573 3.09219 12.0931 2.97676 11.9876C2.86134 11.8822 2.78411 11.7415 2.75717 11.5875C2.73022 11.4335 2.75507 11.2749 2.82783 11.1365C2.90059 10.9982 3.01716 10.8878 3.1593 10.8227L20.1287 3.04509C20.2599 2.98497 20.4063 2.96643 20.5483 2.99196C20.6903 3.01748 20.8212 3.08586 20.9232 3.1879C21.0252 3.28994 21.0936 3.42075 21.1191 3.56278C21.1447 3.70481 21.1261 3.85125 21.066 3.98243L21.0662 3.98265Z" fill="#080809"/>
</svg>
