<svg width="38" height="36" viewBox="0 0 38 36" fill="none" xmlns="http://www.w3.org/2000/svg">
<ellipse cx="19.1443" cy="18" rx="18.7423" ry="18" fill="#F5F5F5"/>
<path d="M24.708 13.2425L18.13 19.5833C18.0546 19.5414 17.9753 19.5062 17.8931 19.4783L13.5503 18.0667C13.419 18.0351 13.3024 17.9622 13.2191 17.8597C13.1358 17.7572 13.0906 17.6309 13.0906 17.5008C13.0906 17.3708 13.1358 17.2445 13.2191 17.142C13.3024 17.0395 13.419 16.9666 13.5503 16.935L24.3254 13.2542C24.3958 13.2312 24.4696 13.2194 24.544 13.2192C24.5996 13.2183 24.655 13.2262 24.708 13.2425Z" fill="#84829A"/>
<path d="M25.1271 14.0241L21.2945 24.3841C21.2523 24.5049 21.17 24.609 21.0603 24.6806C20.9507 24.7522 20.8196 24.7874 20.6871 24.7808C20.5532 24.7867 20.4209 24.7498 20.311 24.6759C20.2012 24.6021 20.1198 24.4954 20.0797 24.3725L18.6342 20.2016C18.6051 20.1227 18.5685 20.0465 18.5248 19.9741L25.1393 13.6566C25.1766 13.7772 25.1723 13.9061 25.1271 14.0241Z" fill="#84829A"/>
</svg>
